<svg xmlns="http://www.w3.org/2000/svg" width="17.852" height="21.5" viewBox="0 0 17.852 21.5">
    <g data-name="Group 1">
        <path data-name="Path 1" d="M164.489 76.883a1.875 1.875 0 0 0 1.4.625h14.107a1.873 1.873 0 0 0 1.861-2.083l-1.513-13.4a.448.448 0 0 0-.445-.4h-3.078v-1.739a3.878 3.878 0 0 0-7.757 0v1.737h-3.078a.448.448 0 0 0-.445.4l-1.512 13.4a1.875 1.875 0 0 0 .464 1.458zm5.467-17a2.983 2.983 0 0 1 5.965 0v1.737h-5.965zm-5.041 15.64 1.467-13.008h2.678v3.009a.448.448 0 0 0 .9 0v-3.006h5.965v3.009a.448.448 0 0 0 .9 0v-3.009h2.678l1.323 11.724h-7.661a.448.448 0 1 0 0 .9h7.762l.044.388a.976.976 0 0 1-.97 1.086h-14.116a.976.976 0 0 1-.97-1.086z" style="fill:#fff" transform="translate(-164.013 -56.008)"/>
        <path data-name="Path 2" d="M270.646 436.852h1.113a.448.448 0 1 0 0-.9h-1.113a.448.448 0 1 0 0 .9z" transform="translate(-265.102 -417.722)" style="fill:#fff"/>
    </g>
</svg>
