<svg xmlns="http://www.w3.org/2000/svg" width="22.163" height="18.92" viewBox="0 0 22.163 18.92">
    <path data-name="Path 63419" d="M122.293 83.994a1.894 1.894 0 0 0-1.892 1.892v15.406a1.624 1.624 0 0 0 1.622 1.622h18.919a1.624 1.624 0 0 0 1.622-1.622V88.859a1.624 1.624 0 0 0-1.622-1.622h-1.622v-2.973a.281.281 0 0 0-.27-.27zm0 .541h16.487v2.7h-16.487a1.351 1.351 0 1 1 0-2.7zm-1.351 2.665a1.883 1.883 0 0 0 1.351.574h18.649a1.073 1.073 0 0 1 1.081 1.081v2.973h-7.568a1.085 1.085 0 0 0-1.081 1.081v4.324a1.085 1.085 0 0 0 1.081 1.081h7.568v2.973a1.073 1.073 0 0 1-1.081 1.081h-18.919a1.073 1.073 0 0 1-1.081-1.081zm13.514 5.169h7.568v5.405h-7.568a.534.534 0 0 1-.54-.54v-4.321a.534.534 0 0 1 .539-.541zm2.162 1.613a1.081 1.081 0 1 0 1.081 1.081 1.085 1.085 0 0 0-1.082-1.078zm0 .54a.541.541 0 1 1-.54.54.537.537 0 0 1 .539-.536z" transform="translate(-120.401 -83.993)" style="fill:#fff"/>
</svg>
