<?xml version="1.0" standalone="no"?>
<!DOCTYPE svg PUBLIC "-//W3C//DTD SVG 20010904//EN"
 "http://www.w3.org/TR/2001/REC-SVG-20010904/DTD/svg10.dtd">
<svg version="1.0" xmlns="http://www.w3.org/2000/svg"
 width="352.000000pt" height="143.000000pt" viewBox="0 0 352.000000 143.000000"
 preserveAspectRatio="xMidYMid meet">
<metadata>
Created by potrace 1.16, written by Peter Selinger 2001-2019
</metadata>
<g transform="translate(0.000000,143.000000) scale(0.100000,-0.100000)"
fill="#000000" stroke="none">
<path d="M2240 1166 c-96 -40 -240 -101 -320 -137 l-145 -64 65 -6 c81 -8 92
-13 113 -48 26 -44 21 -79 -13 -111 -16 -15 -30 -32 -30 -37 0 -4 16 -34 35
-66 19 -32 35 -60 35 -63 0 -2 -20 -4 -44 -4 l-45 0 -38 70 c-35 64 -41 70
-70 70 l-33 0 0 -70 0 -70 -40 0 -40 0 0 140 c0 107 -3 140 -13 140 -15 0
-797 -392 -1012 -508 -249 -134 -371 -204 -345 -198 14 4 138 35 275 70 634
163 1371 297 1925 351 103 10 102 10 83 51 l-17 34 -86 0 -87 0 -16 -40 c-14
-38 -18 -40 -56 -40 -23 0 -41 2 -41 5 0 3 36 77 80 165 l80 160 45 0 45 0 76
-152 c42 -84 78 -155 80 -157 4 -4 477 39 482 44 5 4 -221 189 -333 273 -129
96 -403 275 -417 271 -2 0 -82 -33 -178 -73z m100 -236 l0 -30 -65 0 -65 0 0
-135 0 -135 -40 0 -40 0 0 135 0 135 -65 0 -65 0 0 30 0 30 170 0 170 0 0 -30z"/>
</g>
</svg>
