<?xml version="1.0" encoding="UTF-8"?><svg id="Calque_2" xmlns="http://www.w3.org/2000/svg" xmlns:xlink="http://www.w3.org/1999/xlink" viewBox="0 0 440.96 255.53"><defs><style>.cls-1{fill:url(#DEGRADE_01_3);}.cls-2{fill:url(#DEGRADE_02_3);}.cls-3{fill:#efa846;}.cls-4{fill:#fff;}.cls-5{fill:#e6873d;}.cls-6{fill:#b9d055;}.cls-7{fill:#d73833;}.cls-8{fill:#479b56;}.cls-9{fill:#79b857;}.cls-10{fill:#4ea757;}</style><linearGradient id="DEGRADE_01_3" x1="855.25" y1="394.81" x2="932.57" y2="394.81" gradientTransform="translate(-871.75 -146.75) rotate(-10.26)" gradientUnits="userSpaceOnUse"><stop offset="0" stop-color="#cdd855"/><stop offset="1" stop-color="#479b56"/></linearGradient><linearGradient id="DEGRADE_02_3" x1=".03" y1="59.67" x2="118.18" y2="59.67" gradientUnits="userSpaceOnUse"><stop offset="0" stop-color="#cdd855"/><stop offset=".83" stop-color="#479b56"/></linearGradient></defs><g id="Isolation_Mode"><g><g><g><path class="cls-4" d="M34.69,203.38v-42.37c0-1.98-.64-3.59-1.92-4.82-1.28-1.23-2.87-1.66-4.76-1.28-1.89,.38-3.48,1.43-4.76,3.17-1.28,1.74-1.92,3.6-1.92,5.59v42.37S.08,210.27,.08,210.27v-42.37c0-4.96,2.74-9.73,8.2-14.32,5.46-4.59,12.04-7.65,19.73-9.18,6.41-1.27,12.18-1.11,17.3,.49,5.06-3.63,10.83-6.08,17.31-7.37,7.69-1.53,14.27-1.09,19.73,1.33,5.46,2.42,8.19,6.1,8.2,11.06v42.37s-21.35,4.25-21.35,4.25v-42.37c0-1.98-.63-3.59-1.87-4.83-1.25-1.24-2.82-1.67-4.7-1.29-1.89,.38-3.48,1.43-4.76,3.17-1.28,1.74-1.92,3.6-1.92,5.59v42.37s-21.25,4.23-21.25,4.23"/><path class="cls-4" d="M149.53,120.23c7.69-1.53,14.27-1.09,19.73,1.33,5.46,2.42,8.2,6.1,8.2,11.06v24.42c0,4.96-2.73,9.73-8.2,14.32-5.46,4.59-12.04,7.65-19.73,9.18l-19.93,3.97c-7.69,1.53-14.27,1.09-19.73-1.33-5.46-2.42-8.19-6.1-8.2-11.06v-24.42c0-4.96,2.73-9.73,8.2-14.32,5.46-4.59,12.04-7.65,19.73-9.18l19.93-3.96m.02,49.79c1.88-.37,3.46-1.41,4.74-3.12,1.28-1.7,1.92-3.58,1.92-5.64v-24.42c0-1.98-.64-3.59-1.92-4.82-1.28-1.23-2.86-1.66-4.74-1.29l-19.88,3.95c-1.88,.37-3.46,1.43-4.74,3.17-1.28,1.74-1.92,3.6-1.92,5.59v24.42c0,2.06,.64,3.68,1.91,4.87,1.28,1.2,2.86,1.61,4.74,1.23l19.88-3.95Z"/><path class="cls-4" d="M325.74,85.18c7.69-1.53,14.27-1.09,19.73,1.33,5.46,2.42,8.2,6.1,8.2,11.06v24.42c0,4.96-2.73,9.73-8.2,14.32-5.46,4.59-12.04,7.65-19.73,9.18l-19.93,3.97c-7.69,1.53-14.27,1.09-19.73-1.33-5.46-2.42-8.19-6.1-8.2-11.06v-24.42c0-4.96,2.73-9.73,8.2-14.32,5.46-4.59,12.04-7.65,19.73-9.18l19.93-3.96"/><path class="cls-4" d="M215.33,117.65v31.85c0,2.06,.64,3.68,1.92,4.87,1.28,1.2,2.86,1.61,4.75,1.23l12.51-2.49v10.51s-12.51,2.49-12.51,2.49c-5.12,1.02-9.88,1.13-14.27,.34-4.38-.79-7.79-2.4-10.22-4.82-2.3-2.23-3.44-4.87-3.44-7.91v-31.85s-11.03,2.19-11.03,2.19v-10.51s11.03-2.19,11.03-2.19v-24.42s21.25-4.23,21.25-4.23v24.42s19.06-3.79,19.06-3.79v10.51s-19.06,3.79-19.06,3.79"/><path class="cls-4" d="M266.81,72.48v15.4s-21.25,4.23-21.25,4.23v-15.4s21.25-4.23,21.25-4.23m-21.25,28.65l21.25-4.23v60.31s-21.25,4.23-21.25,4.23v-60.31Z"/><path class="cls-4" d="M412.71,67.88c7.69-1.53,14.27-1.09,19.73,1.33,5.46,2.42,8.19,6.1,8.2,11.06v42.37s-21.25,4.23-21.25,4.23v-42.37c0-1.98-.64-3.59-1.92-4.82-1.28-1.23-2.87-1.66-4.75-1.28l-19.94,3.97c-1.89,.38-3.47,1.43-4.75,3.17-1.28,1.74-1.92,3.61-1.93,5.59v42.37s-21.25,4.23-21.25,4.23v-42.37c0-4.96,2.74-9.73,8.2-14.32,5.47-4.59,12.04-7.65,19.73-9.18l19.93-3.97"/><g><path class="cls-3" d="M325.09,133.53v-9.55s8.47-3.33,8.47-3.33c2.05-.81,3.71-3.32,3.7-5.61l-.03-12.45c0-2.29-1.67-3.5-3.72-2.69l-8.48,3.33-.03-9.41c0-2.29-1.67-3.5-3.72-2.69l-11.13,4.37c-2.05,.81-3.71,3.32-3.7,5.61l.02,9.48-8.48,3.33c-2.05,.81-3.71,3.32-3.7,5.61l.03,12.45c0,2.29,1.67,3.5,3.72,2.69l8.48-3.33,.02,9.48c0,2.29,1.67,3.5,3.72,2.69l11.13-4.37c2.05-.81,3.71-3.32,3.7-5.61Z"/><path class="cls-5" d="M309.81,142.28l11.13-4.37c1.55-.61,2.86-2.61,2.86-4.36v-9.55c-.01-.55,.33-1.05,.83-1.25l8.48-3.33c1.55-.61,2.86-2.61,2.86-4.36l-.03-12.45c0-.17-.01-.34-.04-.49-.06-.34-.22-.8-.61-1.03-.34-.19-.81-.18-1.33,.02l-10.3,4.21-10.78,4.33s.41,5.74,7.72,3.45c-2.55,6.16-6.67,14.99-12.77,23.76v3.91c0,.17,.02,.34,.05,.49,.06,.34,.21,.8,.61,1.03,.34,.19,.81,.18,1.33-.02Z"/><path class="cls-5" d="M322.18,100.06c0-2.31-.88-3.85-1.96-3.42-1.08,.42-1.94,2.64-1.94,4.96v1.07s3.9-1.53,3.9-1.53v-1.07Z"/></g></g><g><path class="cls-4" d="M112.61,34.35c-4.54-10.33-12.1-19-21.55-24.87C81.85,3.48,70.88,0,59.11,0,26.48,0,.03,26.72,.03,59.67c0,4.96,.6,9.78,1.73,14.39-1.36,2.39-1.17,4.53-.71,6,.53,1.66,1.44,2.89,2.62,3.62-.9,3.19-1.82,6.77-2.17,9-.62,4-.17,7.05,1.32,9.08,.96,1.3,2.31,2.11,3.91,2.34,.5,.07,1,.11,1.47,.11,3.59,0,5.84-1.93,7.27-4.29,10.8,11.94,26.35,19.44,43.62,19.44,32.63,0,59.08-26.72,59.08-59.67,0-9.05-2-17.64-5.57-25.32Z"/><path class="cls-1" d="M79.49,93.53c-10.13,4.35-21.64,3.75-30.72,1.16-7.96-2.28-9.99,7.64-.75,9.92,11.44,2.82,23.88,1.89,35.29-3.72,18.09-8.89,28.77-27,29.18-46.01-3.96,15.95-15.38,31.09-33.01,38.65Z"/><g><path class="cls-6" d="M73.76,38.09s0,0,0,0h0s0,0,0,0m-9.29-26.68c-1.28,0-2.62,.34-3.99,1.08-9.63,5.16-2.8,19.98,13.27,25.6,.02-.06,.03-.13,.05-.19-.05,.05-.1,.1-.16,.15,0,0,0,0,0,0h0s0,0,0,0c-7.11-8.95-7.32-19.43-2.35-22.66-1.82-2.51-4.19-3.97-6.83-3.97"/><path class="cls-9" d="M74.87,14.39c-1.39,0-2.58,.36-3.57,1,3.46,4.75,4.93,13.24,2.51,22.51,10.1-9.56,10.57-22.82,1.7-23.49-.22-.02-.43-.02-.64-.02"/><path class="cls-10" d="M73.65,38.05s0,0,0,0h0s0,0,0,0m-2.35-22.66c-4.97,3.23-4.76,13.71,2.35,22.66,.05-.05,.1-.1,.16-.15,2.42-9.27,.95-17.76-2.51-22.51"/></g><path class="cls-2" d="M1.76,74.05C.64,69.44,.03,64.63,.03,59.67,.03,26.72,26.48,0,59.11,0c11.77,0,22.74,3.48,31.95,9.47C82.65,4.24,72.76,1.22,62.16,1.22,31.68,1.22,6.97,26.18,6.97,56.97c0,3.87,.39,7.65,1.13,11.3-2.33,1.38-4.07,2.79-5.3,4.28-.42,.51-.76,1.01-1.04,1.5ZM112.61,34.35c3.04,6.91,4.74,14.57,4.74,22.62,0,30.79-24.71,55.75-55.19,55.75-17.9,0-33.81-8.61-43.89-21.96-.1,.55-.2,1.11-.3,1.67-.27,1.55-.84,4.79-2.48,7.49,10.8,11.94,26.34,19.43,43.62,19.43,32.63,0,59.08-26.72,59.08-59.67,0-9.05-2-17.64-5.57-25.32Z"/><path class="cls-7" d="M85.23,58.48c-.32-3.69,.48-12.18,3.04-22.43,3.64-1.8,7.45-3.43,6.65-6.42-.56-2.1-2.49-1.84-4.59-.95,1.03-3.55,1.51-6-.38-6-1.65,0-4.06,3.96-6.33,9.47-3.29,1.98-6.97,5.29-6.32,7.98,.33,1.38,1.74,1.13,3.39,.35-1.96,6.48-3.36,13.41-3.27,18.35,.14,8.13,2.81,8.24,4.53,8.24s3.49-1.25,4.93-5.33c0,0-1.45-.89-1.65-3.25Zm19.75-12c-.14-5.44,1.04-9.98,1.41-12.06,.4-2.26,1.44-5.09-2.22-5.09-8.15,0-17.38,17.37-17.38,26.42,0,3.23,1.27,6.33,4.46,6.33,2.54,0,6.07-4.45,8.15-7.43,.76,3.29,2.36,3.9,4.41,3.87,3.1-.05,3.89-3.32,3.89-3.32-1.38-.95-2.62-4.15-2.74-8.7Zm-6.04,2.69c0,.48,0,.93,.02,1.36-1.06,1.06-2.39,2.14-3.38,2.14-1.25,0-.96-4.62,.57-8.63,1.76-4.6,4.55-7.48,4.55-7.48,0,0-1.77,4.46-1.77,12.62Zm-64.01-15.93c-6.84,0-17.69,17.14-23.72,34.39-.23,.64-.46,1.33-.7,2.03-4.91,2.65-8.38,5.93-7.19,9.66,.66,2.06,1.86,2.78,3.31,2.71-1.33,4.57-2.41,8.73-2.77,11.02-.83,5.36,.53,8.29,3.2,8.66,4.79,.67,7.32-2.73,8.54-9.71,1.25-7.1,2.53-13.25,3.81-18.58,1.88-1.34,3.91-2.51,5.88-3.51-.21,1.4-.41,2.83-.59,4.26-1.52,12.15,2.43,16.87,5.84,16.87s6.11-3.98,6.11-3.98c-2.23-1.07-3.96-5.96-3.8-11.66,.07-2.42,.35-5.6,.75-9.06,.18-.06,.34-.12,.48-.17,2.53-.89,2.59-1.49,2.59-2.32,0-1.01-.94-1.65-2.55-1.72,1.27-9.65,3.01-19.6,3.38-21.56,.58-3.04,.79-7.35-2.58-7.35Zm-8.58,30.48c-1.45,.4-3.07,.87-4.77,1.42,5.71-20.13,10.74-24.67,10.74-24.67-1.34,3.62-3.96,12.49-5.97,23.26Zm39.23,3.8c-.65-6.12,.73-15.04,.8-16.86,.06-1.45-.02-4.4-2.9-4.4s-5.99,6-7.94,11.3c0,0,2-7.34-3.32-7.34-3.94,0-8.19,11.34-8.19,11.34,0,0,.2-3.65-2.17-3.65-3.04,0-4.91,6.91-5.55,13.54-.59,6.07-.87,12.84,3.55,12.84,3.82,0,3.97-4.1,4.17-5.66,.21-1.56,2.16-12.38,3.71-14.78,0,0-1.13,8.32-.52,11.45,.62,3.12,2.1,2.97,3.3,2.85,1.8-.18,3.08-.82,4.01-4.51,1.42-5.62,2.49-8.65,3.6-11.86,0,0-.27,5.8,.11,9.11,.48,4.15,2.85,6.03,4.75,6.03,2.14,0,4.21-1.1,5.84-3.98,0,0-2.71-.27-3.26-5.42Zm5.3,2.83c-1.16,0-3.37-.53-3.37-5.57,0-8.47,2.24-16.15,2.75-17.39,.51-1.23,1.69-4.79,4.14-4.79,2.04,0,2.14,2.53,1.87,4.17-.63,3.84-1.33,9.67-1.39,14.08-.06,4.01,1.43,4.92,1.43,4.92-1.38,2.88-3.28,4.57-5.42,4.57Z"/><path class="cls-8" d="M109.75,33.79c.13-.03,.24-.1,.32-.2,.08-.1,.12-.22,.12-.36,0-.2-.07-.35-.22-.45-.15-.1-.36-.15-.65-.15h-.81v2.1h.5v-.85h.25l.4,.85h.54l-.45-.93Zm-.17-.3c-.07,.05-.18,.07-.32,.07h-.25v-.63h.22c.16,0,.27,.03,.35,.08,.07,.05,.11,.13,.11,.24s-.03,.18-.1,.23Zm-.31-1.67c-1.02,0-1.85,.84-1.85,1.88s.83,1.88,1.85,1.88,1.85-.84,1.85-1.88-.83-1.88-1.85-1.88Zm0,3.46c-.85,0-1.54-.7-1.54-1.57s.69-1.57,1.54-1.57,1.54,.7,1.54,1.57-.69,1.57-1.54,1.57Z"/></g></g><g><g><path class="cls-4" d="M25.78,224.79v25.61s-5.51,1.07-5.51,1.07v-13.42s-6.55,9.25-6.55,9.25l-1.75,.35-6.54-6.61v13.42s-5.44,1.07-5.44,1.07v-25.61s1.91-.35,1.91-.35l10.98,11.4,11.15-15.82,1.75-.35Z"/><path class="cls-4" d="M41.61,227.94c5.75-1.23,10.64,2.32,10.49,7.72,.09,5.35-4.9,10.96-10.65,11.99-5.75,1.27-10.56-2.38-10.41-7.78-.09-5.35,4.82-10.9,10.57-11.94Zm-.03,4.69c-2.97,.59-5.09,3.19-5.11,6.2-.02,2.94,2.07,4.69,5.05,4.09,2.9-.58,5.09-3.19,5.11-6.12,.02-2.94-2.15-4.75-5.04-4.17Zm-1.17-14.88l6.34-1.27v.91s-3.9,7.82-3.9,7.82l-3.93,.78,1.48-8.25Z"/><path class="cls-4" d="M75.56,221.57l-9.84,21.27-1.79,.36-9.6-17.38,5.63-1.13,4.89,9.68,5.02-11.66,5.67-1.13Z"/><path class="cls-4" d="M88.29,218.61c5.75-1.23,10.64,2.33,10.49,7.72,.09,5.35-4.9,10.95-10.65,11.99-5.75,1.27-10.56-2.38-10.41-7.78-.09-5.35,4.82-10.9,10.57-11.94Zm-.03,4.69c-2.98,.6-5.09,3.19-5.11,6.2-.02,2.94,2.07,4.69,5.05,4.09,2.9-.58,5.09-3.19,5.11-6.12,.02-2.94-2.15-4.75-5.04-4.17Z"/><path class="cls-4" d="M126,230.79c-6.82,1.36-10.79-3.21-10.74-12.7,.06-9.42,4.1-15.44,10.92-16.8,6.86-1.37,10.84,3.05,10.78,12.46-.06,9.49-4.14,15.67-10.96,17.04Zm5.42-17.99c-.28-5.31-2.05-7.43-5.27-6.79-3.21,.64-4.97,3.47-5.32,8.91l10.59-2.12Zm-10.62,6.54c.32,5.26,2.09,7.35,5.23,6.72,3.17-.63,4.97-3.43,5.36-8.84l-10.59,2.12Z"/><path class="cls-4" d="M158.79,220.69c-1.96,2.75-4.86,4.51-8.75,5.29-5.51,1.1-8.67-.32-8.65-3.83,.01-1.98,1.29-3.84,3.48-5.15-1.74-.6-2.64-1.83-2.63-3.62,.02-3.47,3.13-6.18,8.21-7.2,3.65-.73,6.54-.16,8.31,1.57l-3.03,3.69c-1.18-1.02-2.92-1.32-5.22-.86-2.02,.4-3.02,1.21-3.03,2.39,0,1.07,.78,1.52,2.37,1.2l3.57-.71-.02,3.81-3.77,.75c-2.06,.41-2.98,1.13-2.99,2.31,0,1.33,1.02,1.7,3.44,1.22,2.46-.49,4.37-1.59,5.72-3.31l3,2.45Z"/><path class="cls-4" d="M172.86,206.76l-.05,7.13c-.01,2.1,1.05,2.72,3.63,2.21,.32-.06,1.15-.27,2.54-.66l-.03,4.31c-1.23,.55-2.46,.95-3.69,1.2-5.08,1.01-7.8-.95-7.77-5.53l.05-7.59-5.87,1.17,.03-4.65,17.97-3.59-.03,4.65-6.78,1.36Z"/><path class="cls-4" d="M184.5,199.79l5.31-1.06-.07,11.78c-.01,2.1,.78,2.78,2.56,2.42,.28-.05,.95-.23,1.94-.54l-.03,4.31c-.99,.5-2.1,.88-3.26,1.11-4.4,.88-6.57-.93-6.54-5.47l.08-12.54Z"/><path class="cls-4" d="M211.63,213.21l-7.91-8.28-.06,9.87-5.36,1.07,.12-18.87,5.36-1.07-.05,8.69,7.47-10.17,6.35-1.27-7.67,10.4,7.83,8.41-6.07,1.21Z"/><path class="cls-4" d="M240.46,214.3l-5.31,1.06,.11-17.84c.01-2.17-1.45-3.37-3.63-2.93-2.18,.44-3.78,2.24-3.79,4.41l-.07,10.98-5.31,1.06,.08-12.31c0-1.56-.58-2.21-1.77-1.97l-1.11,.26,.03-4.27c.87-.44,1.87-.75,2.94-.97,2.1-.42,3.53-.06,4.35,1.3,1.48-1.67,3.7-2.95,6.12-3.43,4.56-.91,7.52,1.46,7.49,6.08l-.12,18.56Zm-10.04-34.54l6.35-1.27v.91s-3.9,7.82-3.9,7.82l-3.93,.78,1.48-8.25Z"/><path class="cls-4" d="M275.15,197.43c-1.96,2.75-4.86,4.51-8.75,5.29-5.51,1.1-8.68-.32-8.65-3.83,.01-1.98,1.29-3.84,3.48-5.15-1.74-.6-2.64-1.83-2.63-3.62,.02-3.47,3.13-6.18,8.21-7.2,3.65-.73,6.54-.17,8.31,1.57l-3.03,3.69c-1.18-1.02-2.92-1.32-5.22-.86-2.02,.4-3.02,1.21-3.03,2.39,0,1.07,.78,1.52,2.37,1.2l3.57-.71-.02,3.81-3.77,.75c-2.06,.41-2.98,1.13-2.99,2.31,0,1.33,1.02,1.7,3.44,1.22,2.46-.49,4.37-1.6,5.72-3.31l3,2.45Z"/><path class="cls-4" d="M299.25,176.85l-9.84,21.27-1.79,.36-9.6-17.38,5.63-1.13,4.89,9.68,5.02-11.66,5.67-1.13Z"/><path class="cls-4" d="M319.06,188.65c-1.96,2.75-4.86,4.51-8.75,5.29-5.51,1.1-8.67-.32-8.65-3.83,.01-1.98,1.29-3.84,3.48-5.15-1.74-.6-2.64-1.83-2.63-3.62,.02-3.47,3.13-6.18,8.21-7.2,3.65-.73,6.54-.17,8.31,1.57l-3.03,3.69c-1.18-1.02-2.92-1.32-5.22-.86-2.02,.4-3.02,1.21-3.03,2.39,0,1.07,.78,1.52,2.37,1.2l3.57-.71-.02,3.81-3.77,.75c-2.06,.41-2.98,1.13-2.99,2.31,0,1.33,1.02,1.7,3.44,1.22,2.46-.49,4.37-1.6,5.72-3.31l3,2.45Zm-9.63-24.69l6.35-1.27v.91s-3.9,7.82-3.9,7.82l-3.93,.78,1.48-8.25Z"/><path class="cls-4" d="M334.9,189.02c-2.38,.48-4.36,.07-5.74-1.06l-.05,8.61-5.36,1.07,.1-16.12c.04-6.06,4.15-10.84,10.26-12.06,6.07-1.21,10.29,1.94,10.25,7.81-.04,5.68-4.03,10.67-9.46,11.75Zm-.94-14.89c-2.9,.58-4.85,3.02-4.87,6.19-.02,3.09,1.95,4.79,4.85,4.21,2.9-.58,4.93-3.16,4.95-6.17,.02-3.09-2.03-4.81-4.93-4.23Z"/><path class="cls-4" d="M359.81,183.93l-.04,6.52-5.31,1.06,.04-6.4-7.89-17.72,5.63-1.13,4.91,12.42,5.08-14.42,5.67-1.13-8.09,20.81Z"/><path class="cls-4" d="M387.71,174.92c-1.96,2.75-4.86,4.51-8.75,5.29-5.51,1.1-8.68-.32-8.65-3.83,.01-1.98,1.29-3.84,3.48-5.15-1.74-.6-2.64-1.83-2.63-3.62,.02-3.47,3.13-6.18,8.21-7.2,3.65-.73,6.54-.16,8.31,1.57l-3.03,3.69c-1.18-1.02-2.92-1.32-5.22-.86-2.02,.4-3.02,1.21-3.03,2.39,0,1.07,.78,1.52,2.37,1.2l3.57-.71-.02,3.81-3.77,.75c-2.06,.41-2.98,1.13-2.98,2.31,0,1.33,1.02,1.7,3.44,1.22,2.46-.49,4.37-1.59,5.72-3.31l3,2.45Z"/><path class="cls-4" d="M392.68,158.17l5.31-1.06-.07,11.78c-.01,2.1,.78,2.78,2.56,2.42,.28-.05,.95-.23,1.95-.54l-.03,4.31c-.99,.5-2.11,.88-3.26,1.11-4.4,.88-6.57-.93-6.54-5.47l.08-12.54Z"/><path class="cls-4" d="M428.73,165.54l-.03,4.27c-.87,.44-1.87,.75-2.94,.97-2.42,.48-3.96-.2-4.66-2-1.32,2.21-3.67,3.74-6.4,4.29-5.39,1.08-9.3-2.33-9.26-8.01,.04-5.6,3.99-10.66,9.38-11.74,2.86-.57,5.15,.07,6.41,1.76,.05-1.27,.13-2.16,.18-2.66l4.92-.98c-.3,3.87-.44,6.83-.45,8.92l-.02,3.47c-.01,1.56,.5,2.22,1.73,1.98l1.15-.27Zm-12.99-7.76c-2.74,.55-4.85,3.06-4.87,6.15-.02,3.16,2.07,4.8,4.81,4.25,2.7-.54,4.89-2.8,4.91-6.16,.02-3.32-2.15-4.79-4.85-4.25Z"/></g><path class="cls-4" d="M437.31,161.46c2.06-.41,3.65,.84,3.65,2.82,0,2.02-1.58,3.87-3.65,4.28-2.18,.43-3.73-.79-3.73-2.81,0-1.98,1.55-3.86,3.73-4.29Zm-3.3-17.9l6.39-1.27-.99,16.16-4.36,.87-1.03-15.75Z"/></g></g></g></svg>