<svg xmlns="http://www.w3.org/2000/svg" width="48.724" height="29.867" viewBox="0 0 48.724 29.867">
  <defs>
    <style>
      .cls-1, .cls-3 {
        opacity: 0.48;
      }

      .cls-2 {
        fill: #9d9d9d;
      }

      .cls-3 {
        fill: #909090;
      }
    </style>
  </defs>
  <g id="Group_7" data-name="Group 7" transform="translate(-476.488 -852)">
    <g id="Page-1" class="cls-1" transform="translate(476.488 852.025)">
      <g id="walletconnect-logo-2" transform="translate(0 -0.025)">
        <path id="WalletConnect_00000073703063438220642730000002917717552236472496_" class="cls-2" d="M9.979,5.809a20.647,20.647,0,0,1,28.767,0l.955.93a.972.972,0,0,1,0,1.408l-3.268,3.2a.524.524,0,0,1-.716,0L34.4,10.057a14.4,14.4,0,0,0-20.07,0L12.919,11.44a.524.524,0,0,1-.716,0L8.923,8.248a.972.972,0,0,1,0-1.408Zm35.528,6.623,2.916,2.853a.972.972,0,0,1,0,1.408L35.29,29.55a1.024,1.024,0,0,1-1.433,0h0l-9.313-9.124a.258.258,0,0,0-.364,0h0L14.867,29.55a1.024,1.024,0,0,1-1.433,0h0L.3,16.693a.972.972,0,0,1,0-1.408l2.916-2.853a1.024,1.024,0,0,1,1.433,0l9.313,9.124a.258.258,0,0,0,.364,0h0l9.313-9.124a1.024,1.024,0,0,1,1.433,0h0l9.313,9.124a.258.258,0,0,0,.364,0l9.313-9.124A1.04,1.04,0,0,1,45.507,12.433Z" transform="translate(0 0.025)"/>
      </g>
    </g>
    <path id="WalletConnect_00000073703063438220642730000002917717552236472496_2" data-name="WalletConnect_00000073703063438220642730000002917717552236472496_" class="cls-3" d="M8.862,5.809a20.647,20.647,0,0,1,28.767,0l.955.93a.972.972,0,0,1,0,1.408l-3.268,3.2a.524.524,0,0,1-.716,0l-1.32-1.294a14.4,14.4,0,0,0-20.07,0c-1.609,1.571-1.923,1.571-2.124,1.382L7.807,8.248a.972.972,0,0,1,0-1.408Z" transform="translate(477.654 852.025)"/>
  </g>
</svg>
