<svg width="65" height="64" viewBox="0 0 65 64" fill="none" xmlns="http://www.w3.org/2000/svg">
<circle cx="32.7529" cy="32" r="32" fill="#0364FF"/>
<path fill-rule="evenodd" clip-rule="evenodd" d="M45.8305 43.2853C45.6139 44.0935 44.467 44.0935 44.2505 43.2853L41.728 33.8714C41.6792 33.6894 41.6792 33.4978 41.728 33.3158L43.9633 24.9734C44.1609 24.2359 44.8292 23.7231 45.5927 23.7231H48.8738C49.9829 23.7231 50.7902 24.7752 50.5031 25.8466L45.8305 43.2853ZM24.1882 33.8557C24.237 33.6737 24.237 33.4821 24.1882 33.3L21.9571 24.9734C21.7595 24.2359 21.0912 23.7231 20.3277 23.7231H17.0467C15.9375 23.7231 15.1302 24.7752 15.4173 25.8466L20.0858 43.2696C20.3023 44.0778 21.4492 44.0778 21.6658 43.2696L24.1882 33.8557Z" fill="white"/>
<path fill-rule="evenodd" clip-rule="evenodd" d="M31.2943 45.1822C31.2204 45.4582 31.4283 45.7292 31.714 45.7292H34.2163C34.502 45.7292 34.7099 45.4582 34.636 45.1822L33.3848 40.513C33.2698 40.0836 32.6605 40.0836 32.5455 40.513L31.2943 45.1822Z" fill="white"/>
<path fill-rule="evenodd" clip-rule="evenodd" d="M28.8027 48.1715C28.6111 48.8866 27.9631 49.3839 27.2227 49.3839H23.8359C22.7603 49.3839 21.9775 48.3637 22.2559 47.3248L29.2039 21.3944C29.4135 20.6122 30.1223 20.0684 30.932 20.0684H34.9628C35.7726 20.0684 36.4814 20.6122 36.691 21.3944L43.639 47.3248C43.9174 48.3637 43.1345 49.3839 42.059 49.3839H38.6721C37.9317 49.3839 37.2837 48.8866 37.0921 48.1715L33.7127 35.5596C33.5029 34.7766 32.3919 34.7766 32.1821 35.5596L28.8027 48.1715Z" fill="white"/>
<path fill-rule="evenodd" clip-rule="evenodd" d="M45.8391 43.2854C45.6225 44.0936 44.4756 44.0936 44.2591 43.2854L41.7366 33.8715C41.6879 33.6895 41.6879 33.4978 41.7366 33.3158L44.9513 21.3186C45.1489 20.5812 45.8172 20.0684 46.5806 20.0684H49.8617C50.9708 20.0684 51.7781 21.1204 51.4911 22.1918L45.8391 43.2854ZM24.1968 33.8558C24.2456 33.6738 24.2456 33.4821 24.1968 33.3001L20.9864 21.3186C20.7888 20.5812 20.1205 20.0684 19.357 20.0684H16.076C14.9668 20.0684 14.1595 21.1204 14.4466 22.1918L20.0944 43.2697C20.311 44.0779 21.4578 44.0779 21.6744 43.2696L24.1968 33.8558Z" fill="white"/>
</svg>
